<svg width="128" height="148" viewBox="0 0 128 148" fill="none" xmlns="http://www.w3.org/2000/svg">
<path d="M127.601 36.2857V61.5388C123.179 61.1126 117.455 60.1079 111.1 57.779C102.812 54.7422 96.6394 50.5866 92.6056 47.3672V98.4214L92.5067 98.2615C92.5752 99.2738 92.6056 100.301 92.6056 101.344C92.6056 126.704 71.9799 147.337 46.6127 147.337C21.2454 147.337 0.619873 126.696 0.619873 101.344C0.619873 75.9919 21.2454 55.3435 46.6127 55.3435C49.0939 55.3435 51.5293 55.5414 53.9115 55.9219V80.8173C51.6207 79.9953 49.17 79.5539 46.6127 79.5539C34.6026 79.5539 24.8226 89.3263 24.8226 101.344C24.8226 113.362 34.6026 123.134 46.6127 123.134C58.6227 123.134 68.4028 113.354 68.4028 101.344C68.4028 100.895 68.3952 100.446 68.3648 99.9968V0.780701H93.6102C93.7015 2.91937 93.7928 5.07325 93.8766 7.21193C94.044 11.4208 95.5434 15.4622 98.1539 18.7729C101.221 22.6621 105.742 27.183 112.105 30.7906C118.057 34.1622 123.643 35.6083 127.601 36.2933V36.2857Z" fill="white"/>
</svg>
